<?xml version="1.0" encoding="utf-8" standalone="no"?>
<!DOCTYPE svg PUBLIC "-//W3C//DTD SVG 1.1//EN"
  "http://www.w3.org/Graphics/SVG/1.1/DTD/svg11.dtd">
<!-- Created with matplotlib (https://matplotlib.org/) -->
<svg height="330.75pt" version="1.1" viewBox="0 0 540 330.75" width="540pt" xmlns="http://www.w3.org/2000/svg" xmlns:xlink="http://www.w3.org/1999/xlink">
 <defs>
  <style type="text/css">
*{stroke-linecap:butt;stroke-linejoin:round;}
  </style>
 </defs>
 <g id="figure_1">
  <g id="patch_1">
   <path d="M 0 330.75 
L 540 330.75 
L 540 0 
L 0 0 
z
" style="fill:#ffffff;"/>
  </g>
  <g id="axes_1">
   <g id="patch_2">
    <path d="M 67.5 294.3675 
L 486 294.3675 
L 486 39.69 
L 67.5 39.69 
z
" style="fill:#ffffff;"/>
   </g>
   <g id="matplotlib.axis_1">
    <g id="xtick_1">
     <g id="line2d_1">
      <defs>
       <path d="M 0 0 
L 0 3.5 
" id="m82b7eaf589" style="stroke:#000000;stroke-opacity:0.3;stroke-width:0.8;"/>
      </defs>
      <g>
       <use style="fill-opacity:0.3;stroke:#000000;stroke-opacity:0.3;stroke-width:0.8;" x="86.522727" xlink:href="#m82b7eaf589" y="294.3675"/>
      </g>
     </g>
     <g id="text_1">
      <!-- 0 -->
      <defs>
       <path d="M 31.78125 66.40625 
Q 24.171875 66.40625 20.328125 58.90625 
Q 16.5 51.421875 16.5 36.375 
Q 16.5 21.390625 20.328125 13.890625 
Q 24.171875 6.390625 31.78125 6.390625 
Q 39.453125 6.390625 43.28125 13.890625 
Q 47.125 21.390625 47.125 36.375 
Q 47.125 51.421875 43.28125 58.90625 
Q 39.453125 66.40625 31.78125 66.40625 
z
M 31.78125 74.21875 
Q 44.046875 74.21875 50.515625 64.515625 
Q 56.984375 54.828125 56.984375 36.375 
Q 56.984375 17.96875 50.515625 8.265625 
Q 44.046875 -1.421875 31.78125 -1.421875 
Q 19.53125 -1.421875 13.0625 8.265625 
Q 6.59375 17.96875 6.59375 36.375 
Q 6.59375 54.828125 13.0625 64.515625 
Q 19.53125 74.21875 31.78125 74.21875 
z
" id="DejaVuSans-48"/>
      </defs>
      <g style="opacity:0.6;" transform="translate(83.872746 307.696998)scale(0.0833 -0.0833)">
       <use xlink:href="#DejaVuSans-48"/>
      </g>
     </g>
    </g>
    <g id="xtick_2">
     <g id="line2d_2">
      <g>
       <use style="fill-opacity:0.3;stroke:#000000;stroke-opacity:0.3;stroke-width:0.8;" x="147.073949" xlink:href="#m82b7eaf589" y="294.3675"/>
      </g>
     </g>
     <g id="text_2">
      <!-- 5 -->
      <defs>
       <path d="M 10.796875 72.90625 
L 49.515625 72.90625 
L 49.515625 64.59375 
L 19.828125 64.59375 
L 19.828125 46.734375 
Q 21.96875 47.46875 24.109375 47.828125 
Q 26.265625 48.1875 28.421875 48.1875 
Q 40.625 48.1875 47.75 41.5 
Q 54.890625 34.8125 54.890625 23.390625 
Q 54.890625 11.625 47.5625 5.09375 
Q 40.234375 -1.421875 26.90625 -1.421875 
Q 22.3125 -1.421875 17.546875 -0.640625 
Q 12.796875 0.140625 7.71875 1.703125 
L 7.71875 11.625 
Q 12.109375 9.234375 16.796875 8.0625 
Q 21.484375 6.890625 26.703125 6.890625 
Q 35.15625 6.890625 40.078125 11.328125 
Q 45.015625 15.765625 45.015625 23.390625 
Q 45.015625 31 40.078125 35.4375 
Q 35.15625 39.890625 26.703125 39.890625 
Q 22.75 39.890625 18.8125 39.015625 
Q 14.890625 38.140625 10.796875 36.28125 
z
" id="DejaVuSans-53"/>
      </defs>
      <g style="opacity:0.6;" transform="translate(144.423968 307.696998)scale(0.0833 -0.0833)">
       <use xlink:href="#DejaVuSans-53"/>
      </g>
     </g>
    </g>
    <g id="xtick_3">
     <g id="line2d_3">
      <g>
       <use style="fill-opacity:0.3;stroke:#000000;stroke-opacity:0.3;stroke-width:0.8;" x="207.62517" xlink:href="#m82b7eaf589" y="294.3675"/>
      </g>
     </g>
     <g id="text_3">
      <!-- 10 -->
      <defs>
       <path d="M 12.40625 8.296875 
L 28.515625 8.296875 
L 28.515625 63.921875 
L 10.984375 60.40625 
L 10.984375 69.390625 
L 28.421875 72.90625 
L 38.28125 72.90625 
L 38.28125 8.296875 
L 54.390625 8.296875 
L 54.390625 0 
L 12.40625 0 
z
" id="DejaVuSans-49"/>
      </defs>
      <g style="opacity:0.6;" transform="translate(202.325208 307.696998)scale(0.0833 -0.0833)">
       <use xlink:href="#DejaVuSans-49"/>
       <use x="63.623047" xlink:href="#DejaVuSans-48"/>
      </g>
     </g>
    </g>
    <g id="xtick_4">
     <g id="line2d_4">
      <g>
       <use style="fill-opacity:0.3;stroke:#000000;stroke-opacity:0.3;stroke-width:0.8;" x="268.176392" xlink:href="#m82b7eaf589" y="294.3675"/>
      </g>
     </g>
     <g id="text_4">
      <!-- 15 -->
      <g style="opacity:0.6;" transform="translate(262.876429 307.696998)scale(0.0833 -0.0833)">
       <use xlink:href="#DejaVuSans-49"/>
       <use x="63.623047" xlink:href="#DejaVuSans-53"/>
      </g>
     </g>
    </g>
    <g id="xtick_5">
     <g id="line2d_5">
      <g>
       <use style="fill-opacity:0.3;stroke:#000000;stroke-opacity:0.3;stroke-width:0.8;" x="328.727613" xlink:href="#m82b7eaf589" y="294.3675"/>
      </g>
     </g>
     <g id="text_5">
      <!-- 20 -->
      <defs>
       <path d="M 19.1875 8.296875 
L 53.609375 8.296875 
L 53.609375 0 
L 7.328125 0 
L 7.328125 8.296875 
Q 12.9375 14.109375 22.625 23.890625 
Q 32.328125 33.6875 34.8125 36.53125 
Q 39.546875 41.84375 41.421875 45.53125 
Q 43.3125 49.21875 43.3125 52.78125 
Q 43.3125 58.59375 39.234375 62.25 
Q 35.15625 65.921875 28.609375 65.921875 
Q 23.96875 65.921875 18.8125 64.3125 
Q 13.671875 62.703125 7.8125 59.421875 
L 7.8125 69.390625 
Q 13.765625 71.78125 18.9375 73 
Q 24.125 74.21875 28.421875 74.21875 
Q 39.75 74.21875 46.484375 68.546875 
Q 53.21875 62.890625 53.21875 53.421875 
Q 53.21875 48.921875 51.53125 44.890625 
Q 49.859375 40.875 45.40625 35.40625 
Q 44.1875 33.984375 37.640625 27.21875 
Q 31.109375 20.453125 19.1875 8.296875 
z
" id="DejaVuSans-50"/>
      </defs>
      <g style="opacity:0.6;" transform="translate(323.427651 307.696998)scale(0.0833 -0.0833)">
       <use xlink:href="#DejaVuSans-50"/>
       <use x="63.623047" xlink:href="#DejaVuSans-48"/>
      </g>
     </g>
    </g>
    <g id="xtick_6">
     <g id="line2d_6">
      <g>
       <use style="fill-opacity:0.3;stroke:#000000;stroke-opacity:0.3;stroke-width:0.8;" x="389.278835" xlink:href="#m82b7eaf589" y="294.3675"/>
      </g>
     </g>
     <g id="text_6">
      <!-- 25 -->
      <g style="opacity:0.6;" transform="translate(383.978872 307.696998)scale(0.0833 -0.0833)">
       <use xlink:href="#DejaVuSans-50"/>
       <use x="63.623047" xlink:href="#DejaVuSans-53"/>
      </g>
     </g>
    </g>
    <g id="xtick_7">
     <g id="line2d_7">
      <g>
       <use style="fill-opacity:0.3;stroke:#000000;stroke-opacity:0.3;stroke-width:0.8;" x="449.830056" xlink:href="#m82b7eaf589" y="294.3675"/>
      </g>
     </g>
     <g id="text_7">
      <!-- 30 -->
      <defs>
       <path d="M 40.578125 39.3125 
Q 47.65625 37.796875 51.625 33 
Q 55.609375 28.21875 55.609375 21.1875 
Q 55.609375 10.40625 48.1875 4.484375 
Q 40.765625 -1.421875 27.09375 -1.421875 
Q 22.515625 -1.421875 17.65625 -0.515625 
Q 12.796875 0.390625 7.625 2.203125 
L 7.625 11.71875 
Q 11.71875 9.328125 16.59375 8.109375 
Q 21.484375 6.890625 26.8125 6.890625 
Q 36.078125 6.890625 40.9375 10.546875 
Q 45.796875 14.203125 45.796875 21.1875 
Q 45.796875 27.640625 41.28125 31.265625 
Q 36.765625 34.90625 28.71875 34.90625 
L 20.21875 34.90625 
L 20.21875 43.015625 
L 29.109375 43.015625 
Q 36.375 43.015625 40.234375 45.921875 
Q 44.09375 48.828125 44.09375 54.296875 
Q 44.09375 59.90625 40.109375 62.90625 
Q 36.140625 65.921875 28.71875 65.921875 
Q 24.65625 65.921875 20.015625 65.03125 
Q 15.375 64.15625 9.8125 62.3125 
L 9.8125 71.09375 
Q 15.4375 72.65625 20.34375 73.4375 
Q 25.25 74.21875 29.59375 74.21875 
Q 40.828125 74.21875 47.359375 69.109375 
Q 53.90625 64.015625 53.90625 55.328125 
Q 53.90625 49.265625 50.4375 45.09375 
Q 46.96875 40.921875 40.578125 39.3125 
z
" id="DejaVuSans-51"/>
      </defs>
      <g style="opacity:0.6;" transform="translate(444.530094 307.696998)scale(0.0833 -0.0833)">
       <use xlink:href="#DejaVuSans-51"/>
       <use x="63.623047" xlink:href="#DejaVuSans-48"/>
      </g>
     </g>
    </g>
    <g id="text_8">
     <!-- $k$ -->
     <defs>
      <path d="M 18.3125 75.984375 
L 27.296875 75.984375 
L 18.703125 31.6875 
L 49.515625 54.6875 
L 61.1875 54.6875 
L 26.8125 28.515625 
L 51.90625 0 
L 41.015625 0 
L 17.671875 26.703125 
L 12.5 0 
L 3.515625 0 
z
" id="DejaVuSans-Oblique-107"/>
     </defs>
     <g style="opacity:0.85;" transform="translate(272.574 330.371128)scale(0.144 -0.144)">
      <use transform="translate(0 0.015625)" xlink:href="#DejaVuSans-Oblique-107"/>
     </g>
    </g>
   </g>
   <g id="matplotlib.axis_2">
    <g id="ytick_1">
     <g id="line2d_8">
      <path clip-path="url(#p5bc5feeae5)" d="M 67.5 294.3675 
L 486 294.3675 
" style="fill:none;stroke:#b0b0b0;stroke-linecap:square;stroke-opacity:0.15;stroke-width:0.8;"/>
     </g>
     <g id="line2d_9">
      <defs>
       <path d="M 0 0 
L -3.5 0 
" id="m405fa264ea" style="stroke:#000000;stroke-opacity:0.3;stroke-width:0.8;"/>
      </defs>
      <g>
       <use style="fill-opacity:0.3;stroke:#000000;stroke-opacity:0.3;stroke-width:0.8;" x="67.5" xlink:href="#m405fa264ea" y="294.3675"/>
      </g>
     </g>
     <g id="text_9">
      <!-- 0.0 -->
      <defs>
       <path d="M 10.6875 12.40625 
L 21 12.40625 
L 21 0 
L 10.6875 0 
z
" id="DejaVuSans-46"/>
      </defs>
      <g style="opacity:0.6;" transform="translate(47.252697 297.532249)scale(0.0833 -0.0833)">
       <use xlink:href="#DejaVuSans-48"/>
       <use x="63.623047" xlink:href="#DejaVuSans-46"/>
       <use x="95.410156" xlink:href="#DejaVuSans-48"/>
      </g>
     </g>
    </g>
    <g id="ytick_2">
     <g id="line2d_10">
      <path clip-path="url(#p5bc5feeae5)" d="M 67.5 230.698125 
L 486 230.698125 
" style="fill:none;stroke:#b0b0b0;stroke-linecap:square;stroke-opacity:0.15;stroke-width:0.8;"/>
     </g>
     <g id="line2d_11">
      <g>
       <use style="fill-opacity:0.3;stroke:#000000;stroke-opacity:0.3;stroke-width:0.8;" x="67.5" xlink:href="#m405fa264ea" y="230.698125"/>
      </g>
     </g>
     <g id="text_10">
      <!-- 0.5 -->
      <g style="opacity:0.6;" transform="translate(47.252697 233.862874)scale(0.0833 -0.0833)">
       <use xlink:href="#DejaVuSans-48"/>
       <use x="63.623047" xlink:href="#DejaVuSans-46"/>
       <use x="95.410156" xlink:href="#DejaVuSans-53"/>
      </g>
     </g>
    </g>
    <g id="ytick_3">
     <g id="line2d_12">
      <path clip-path="url(#p5bc5feeae5)" d="M 67.5 167.02875 
L 486 167.02875 
" style="fill:none;stroke:#b0b0b0;stroke-linecap:square;stroke-opacity:0.15;stroke-width:0.8;"/>
     </g>
     <g id="line2d_13">
      <g>
       <use style="fill-opacity:0.3;stroke:#000000;stroke-opacity:0.3;stroke-width:0.8;" x="67.5" xlink:href="#m405fa264ea" y="167.02875"/>
      </g>
     </g>
     <g id="text_11">
      <!-- 1.0 -->
      <g style="opacity:0.6;" transform="translate(47.252697 170.193499)scale(0.0833 -0.0833)">
       <use xlink:href="#DejaVuSans-49"/>
       <use x="63.623047" xlink:href="#DejaVuSans-46"/>
       <use x="95.410156" xlink:href="#DejaVuSans-48"/>
      </g>
     </g>
    </g>
    <g id="ytick_4">
     <g id="line2d_14">
      <path clip-path="url(#p5bc5feeae5)" d="M 67.5 103.359375 
L 486 103.359375 
" style="fill:none;stroke:#b0b0b0;stroke-linecap:square;stroke-opacity:0.15;stroke-width:0.8;"/>
     </g>
     <g id="line2d_15">
      <g>
       <use style="fill-opacity:0.3;stroke:#000000;stroke-opacity:0.3;stroke-width:0.8;" x="67.5" xlink:href="#m405fa264ea" y="103.359375"/>
      </g>
     </g>
     <g id="text_12">
      <!-- 1.5 -->
      <g style="opacity:0.6;" transform="translate(47.252697 106.524124)scale(0.0833 -0.0833)">
       <use xlink:href="#DejaVuSans-49"/>
       <use x="63.623047" xlink:href="#DejaVuSans-46"/>
       <use x="95.410156" xlink:href="#DejaVuSans-53"/>
      </g>
     </g>
    </g>
    <g id="ytick_5">
     <g id="line2d_16">
      <path clip-path="url(#p5bc5feeae5)" d="M 67.5 39.69 
L 486 39.69 
" style="fill:none;stroke:#b0b0b0;stroke-linecap:square;stroke-opacity:0.15;stroke-width:0.8;"/>
     </g>
     <g id="line2d_17">
      <g>
       <use style="fill-opacity:0.3;stroke:#000000;stroke-opacity:0.3;stroke-width:0.8;" x="67.5" xlink:href="#m405fa264ea" y="39.69"/>
      </g>
     </g>
     <g id="text_13">
      <!-- 2.0 -->
      <g style="opacity:0.6;" transform="translate(47.252697 42.854749)scale(0.0833 -0.0833)">
       <use xlink:href="#DejaVuSans-50"/>
       <use x="63.623047" xlink:href="#DejaVuSans-46"/>
       <use x="95.410156" xlink:href="#DejaVuSans-48"/>
      </g>
     </g>
    </g>
    <g id="text_14">
     <!-- $S\hspace{0.1}(\hspace{0.05}k\hspace{0.05})$ -->
     <defs>
      <path d="M 60.296875 70.515625 
L 58.40625 60.890625 
Q 53.46875 63.53125 48.609375 64.875 
Q 43.75 66.21875 39.203125 66.21875 
Q 30.375 66.21875 25.140625 62.359375 
Q 19.921875 58.5 19.921875 52.09375 
Q 19.921875 48.578125 21.84375 46.703125 
Q 23.78125 44.828125 31.78125 42.671875 
L 37.703125 41.21875 
Q 47.703125 38.625 51.609375 34.640625 
Q 55.515625 30.671875 55.515625 23.484375 
Q 55.515625 12.453125 46.84375 5.515625 
Q 38.1875 -1.421875 24.03125 -1.421875 
Q 18.21875 -1.421875 12.359375 -0.265625 
Q 6.5 0.875 0.59375 3.21875 
L 2.59375 13.375 
Q 8.015625 10.015625 13.453125 8.296875 
Q 18.890625 6.59375 24.3125 6.59375 
Q 33.546875 6.59375 39.109375 10.6875 
Q 44.671875 14.796875 44.671875 21.390625 
Q 44.671875 25.78125 42.453125 28.046875 
Q 40.234375 30.328125 32.90625 32.171875 
L 27 33.6875 
Q 16.890625 36.328125 13.203125 39.765625 
Q 9.515625 43.21875 9.515625 49.421875 
Q 9.515625 60.296875 17.890625 67.25 
Q 26.265625 74.21875 39.703125 74.21875 
Q 44.921875 74.21875 50.046875 73.28125 
Q 55.171875 72.359375 60.296875 70.515625 
z
" id="DejaVuSans-Oblique-83"/>
      <path d="M 31 75.875 
Q 24.46875 64.65625 21.28125 53.65625 
Q 18.109375 42.671875 18.109375 31.390625 
Q 18.109375 20.125 21.3125 9.0625 
Q 24.515625 -2 31 -13.1875 
L 23.1875 -13.1875 
Q 15.875 -1.703125 12.234375 9.375 
Q 8.59375 20.453125 8.59375 31.390625 
Q 8.59375 42.28125 12.203125 53.3125 
Q 15.828125 64.359375 23.1875 75.875 
z
" id="DejaVuSans-40"/>
      <path d="M 8.015625 75.875 
L 15.828125 75.875 
Q 23.140625 64.359375 26.78125 53.3125 
Q 30.421875 42.28125 30.421875 31.390625 
Q 30.421875 20.453125 26.78125 9.375 
Q 23.140625 -1.703125 15.828125 -13.1875 
L 8.015625 -13.1875 
Q 14.5 -2 17.703125 9.0625 
Q 20.90625 20.125 20.90625 31.390625 
Q 20.90625 42.671875 17.703125 53.65625 
Q 14.5 64.65625 8.015625 75.875 
z
" id="DejaVuSans-41"/>
     </defs>
     <g style="opacity:0.85;" transform="translate(34.257947 182.79675)rotate(-90)scale(0.144 -0.144)">
      <use transform="translate(0 0.015625)" xlink:href="#DejaVuSans-Oblique-83"/>
      <use transform="translate(73.217773 0.015625)" xlink:href="#DejaVuSans-40"/>
      <use transform="translate(117.102051 0.015625)" xlink:href="#DejaVuSans-Oblique-107"/>
      <use transform="translate(179.882812 0.015625)" xlink:href="#DejaVuSans-41"/>
     </g>
    </g>
   </g>
   <g id="line2d_18">
    <path clip-path="url(#p5bc5feeae5)" d="M 86.522727 288.802824 
L 92.845041 288.688407 
L 98.795455 288.357012 
L 104.002066 287.854166 
L 108.836777 287.159245 
L 112.927686 286.34556 
L 116.646694 285.367468 
L 119.621901 284.371393 
L 122.597107 283.129068 
L 125.200413 281.783699 
L 127.431818 280.387426 
L 129.663223 278.710032 
L 131.522727 277.047167 
L 133.382231 275.088295 
L 135.241736 272.767637 
L 136.729339 270.59529 
L 138.216942 268.085482 
L 139.704545 265.173727 
L 141.192149 261.78136 
L 142.679752 257.812359 
L 144.167355 253.149636 
L 145.654959 247.650969 
L 147.142562 241.144959 
L 148.630165 233.42795 
L 150.117769 224.263783 
L 151.605372 213.389768 
L 153.092975 200.534745 
L 154.580579 185.458222 
L 156.068182 168.022479 
L 157.927686 143.066925 
L 163.506198 64.237563 
L 164.621901 53.484209 
L 165.365702 48.268463 
L 166.109504 44.778725 
L 166.481405 43.700683 
L 166.853306 43.067333 
L 167.225207 42.872469 
L 167.597107 43.105149 
L 167.969008 43.75009 
L 168.340909 44.788169 
L 169.084711 47.951459 
L 169.828512 52.387576 
L 170.944215 60.922809 
L 172.431818 74.608764 
L 177.63843 124.941211 
L 179.497934 139.977341 
L 180.985537 150.465329 
L 182.47314 159.632667 
L 183.960744 167.577652 
L 185.448347 174.416566 
L 186.93595 180.266904 
L 188.423554 185.238681 
L 189.911157 189.430542 
L 191.39876 192.928572 
L 192.886364 195.806547 
L 194.373967 198.126868 
L 195.86157 199.941776 
L 196.977273 200.997659 
L 198.092975 201.809191 
L 199.208678 202.389617 
L 200.32438 202.750276 
L 201.440083 202.900827 
L 202.555785 202.849468 
L 203.671488 202.603137 
L 204.78719 202.167701 
L 206.274793 201.301467 
L 207.762397 200.117778 
L 209.25 198.625143 
L 210.737603 196.831425 
L 212.597107 194.178284 
L 214.456612 191.085986 
L 216.316116 187.579043 
L 218.547521 182.871942 
L 221.150826 176.801893 
L 224.869835 167.440622 
L 229.332645 156.26557 
L 231.56405 151.272292 
L 233.423554 147.672898 
L 234.911157 145.263033 
L 236.39876 143.335853 
L 237.514463 142.234475 
L 238.630165 141.441816 
L 239.745868 140.963591 
L 240.86157 140.799103 
L 241.977273 140.941377 
L 243.092975 141.377573 
L 244.208678 142.089645 
L 245.32438 143.055172 
L 246.811983 144.691784 
L 248.299587 146.665323 
L 250.159091 149.497914 
L 252.762397 153.90167 
L 259.828512 166.100331 
L 262.431818 170.031419 
L 264.663223 172.99483 
L 266.522727 175.144584 
L 268.382231 176.987929 
L 270.241736 178.517392 
L 272.10124 179.730708 
L 273.960744 180.629539 
L 275.448347 181.125223 
L 276.93595 181.426068 
L 278.423554 181.536404 
L 279.911157 181.461333 
L 281.770661 181.115766 
L 283.630165 180.50292 
L 285.489669 179.63818 
L 287.349174 178.53944 
L 289.580579 176.941616 
L 291.811983 175.079395 
L 294.78719 172.273278 
L 299.25 167.671411 
L 303.71281 163.125982 
L 306.316116 160.759249 
L 308.547521 159.017242 
L 310.407025 157.820691 
L 312.266529 156.890515 
L 314.126033 156.24967 
L 315.613636 155.954214 
L 317.10124 155.853761 
L 318.588843 155.945329 
L 320.076446 156.221657 
L 321.93595 156.809543 
L 323.795455 157.639321 
L 326.02686 158.904107 
L 328.630165 160.662832 
L 332.349174 163.485196 
L 338.671488 168.309102 
L 341.646694 170.292744 
L 344.25 171.77395 
L 346.481405 172.820694 
L 348.71281 173.642496 
L 350.944215 174.228207 
L 353.17562 174.572753 
L 355.407025 174.676577 
L 357.63843 174.545222 
L 359.869835 174.189061 
L 362.10124 173.623143 
L 364.704545 172.724266 
L 367.679752 171.43079 
L 371.02686 169.722377 
L 382.927686 163.367422 
L 385.530992 162.330017 
L 388.134298 161.542786 
L 390.365702 161.094418 
L 392.597107 160.868804 
L 394.828512 160.86894 
L 397.059917 161.088147 
L 399.291322 161.510718 
L 401.894628 162.229013 
L 404.869835 163.287815 
L 408.960744 165.010665 
L 417.514463 168.706316 
L 420.86157 169.891107 
L 423.836777 170.724588 
L 426.811983 171.316229 
L 429.415289 171.619868 
L 432.018595 171.718438 
L 434.621901 171.614528 
L 437.597107 171.260465 
L 440.572314 170.679639 
L 443.919421 169.799719 
L 448.382231 168.364083 
L 458.795455 164.872957 
L 462.142562 164.02446 
L 465.117769 163.481852 
L 466.977273 163.258883 
L 466.977273 163.258883 
" style="fill:none;stroke:#1f77b4;stroke-linecap:square;stroke-width:2.5;"/>
   </g>
   <g id="patch_3">
    <path d="M 67.5 294.3675 
L 67.5 39.69 
" style="fill:none;opacity:0;"/>
   </g>
   <g id="patch_4">
    <path d="M 486 294.3675 
L 486 39.69 
" style="fill:none;opacity:0;"/>
   </g>
   <g id="patch_5">
    <path d="M 67.5 294.3675 
L 486 294.3675 
" style="fill:none;opacity:0.3;stroke:#000000;stroke-linecap:square;stroke-linejoin:miter;stroke-width:0.8;"/>
   </g>
   <g id="patch_6">
    <path d="M 67.5 39.69 
L 486 39.69 
" style="fill:none;opacity:0;"/>
   </g>
  </g>
 </g>
 <defs>
  <clipPath id="p5bc5feeae5">
   <rect height="254.6775" width="418.5" x="67.5" y="39.69"/>
  </clipPath>
 </defs>
</svg>
